<?xml version="1.0" encoding="UTF-8" standalone="no"?>
<!-- Created with Inkscape (http://www.inkscape.org/) -->

<svg
   xmlns:dc="http://purl.org/dc/elements/1.1/"
   xmlns:cc="http://creativecommons.org/ns#"
   xmlns:rdf="http://www.w3.org/1999/02/22-rdf-syntax-ns#"
   xmlns:svg="http://www.w3.org/2000/svg"
   xmlns="http://www.w3.org/2000/svg"
   xmlns:sodipodi="http://sodipodi.sourceforge.net/DTD/sodipodi-0.dtd"
   xmlns:inkscape="http://www.inkscape.org/namespaces/inkscape"
   width="199.86"
   height="87.550003"
   id="svg2"
   version="1.1"
   inkscape:version="0.47 r22583"
   sodipodi:docname="New document 1">
  <defs
     id="defs4">
    <inkscape:perspective
       sodipodi:type="inkscape:persp3d"
       inkscape:vp_x="0 : 526.18109 : 1"
       inkscape:vp_y="0 : 1000 : 0"
       inkscape:vp_z="744.09448 : 526.18109 : 1"
       inkscape:persp3d-origin="372.04724 : 350.78739 : 1"
       id="perspective10" />
    <clipPath
       id="clipPath2834"
       clipPathUnits="userSpaceOnUse">
      <path
         id="path2836"
         d="M 0,0 840,0 840,69 0,69 0,0 z" />
    </clipPath>
    <inkscape:perspective
       id="perspective2824"
       inkscape:persp3d-origin="0.5 : 0.33333333 : 1"
       inkscape:vp_z="1 : 0.5 : 1"
       inkscape:vp_y="0 : 1000 : 0"
       inkscape:vp_x="0 : 0.5 : 1"
       sodipodi:type="inkscape:persp3d" />
  </defs>
  <sodipodi:namedview
     id="base"
     pagecolor="#ffffff"
     bordercolor="#666666"
     borderopacity="1.0"
     inkscape:pageopacity="0.0"
     inkscape:pageshadow="2"
     inkscape:zoom="5.4451694"
     inkscape:cx="140.79192"
     inkscape:cy="29.633347"
     inkscape:document-units="px"
     inkscape:current-layer="layer1"
     showgrid="false"
     inkscape:window-width="1680"
     inkscape:window-height="1000"
     inkscape:window-x="-8"
     inkscape:window-y="-8"
     inkscape:window-maximized="1" />
  <metadata
     id="metadata7">
    <rdf:RDF>
      <cc:Work
         rdf:about="">
        <dc:format>image/svg+xml</dc:format>
        <dc:type
           rdf:resource="http://purl.org/dc/dcmitype/StillImage" />
        <dc:title></dc:title>
      </cc:Work>
    </rdf:RDF>
  </metadata>
  <g
     inkscape:label="Layer 1"
     inkscape:groupmode="layer"
     id="layer1"
     transform="translate(149.56694,-487.58531)">
    <path
       d="m -130.76484,541.79206 c 0,6.8725 6.185,9.91625 12.56875,9.91625 7.65875,0 25.921246,-6.38125 25.921246,-26.315 0,-20.1275 -18.066246,-29.06375 -30.242496,-29.06375 -8.0525,0 -8.2475,1.76625 -8.2475,3.14125 l 0,42.32125 z m -5.8925,12.2725 c -2.84625,0 -6.48,0.3925 -8.83625,0.3925 -0.49125,0 -1.7675,0 -1.7675,-0.98125 0,-0.78625 0.6875,-1.67 3.6325,-2.16 2.16125,-0.39375 4.42,-0.68875 4.42,-6.38375 l 0,-46.14875 c 0,-1.865 -4.125,-1.66875 -6.67875,-1.865 -2.2575,-0.1975 -2.945,-0.1975 -2.945,-1.27625 0,-1.67001 2.6525,-1.67001 3.83,-1.67001 l 8.935,0 c 4.81125,0 9.42625,-0.58749 15.71,-0.58749 20.619996,0 37.312496,10.21125 37.312496,33.875 0,14.72875 -13.55,26.805 -30.438746,26.805 l -23.17375,0"
       style="fill:#272f5b;fill-opacity:1;fill-rule:nonzero;stroke:none"
       id="path2896" />
    <path
       d="m -73.891094,541.88956 c 0,-5.98875 0.19625,-15.12125 0.19625,-20.91375 0,-1.375 -1.66875,-1.5725 -2.8475,-1.86625 -2.35625,-0.58875 -2.94625,-0.785 -2.94625,-1.4725 0,-0.88375 1.08,-0.88375 2.455,-0.88375 1.375,0 2.74875,0.1975 4.2225,0.1975 1.375,0 2.8475,-0.1975 4.32,-0.1975 1.276263,0 1.47375,0.49125 1.47375,1.86625 0,8.7375 -0.197487,17.47625 -0.197487,26.21625 0,4.02625 2.946237,6.2825 7.757487,6.2825 10.8975,0 11.68375,-4.615 11.7825,-8.64 0,-6.97125 0.19625,-14.04125 0.19625,-21.01375 0,-1.17625 -0.491262,-1.17625 -5.105,-2.355 -0.78625,-0.19625 -2.8475,-0.785 -2.8475,-1.57125 0,-0.5875 1.078762,-0.785 2.158762,-0.785 1.668738,0 3.338738,0.1975 5.008738,0.1975 1.9625,0 3.828763,-0.1975 5.791262,-0.1975 0.68875,0 2.0625,0.29375 2.0625,2.0625 0,9.91625 -0.392512,19.83375 -0.392512,29.75 0,2.06125 1.669987,2.35625 2.55375,2.35625 3.82875,0 5.10625,0 5.10625,0.9825 0,0.785 -0.49125,0.9825 -1.96375,1.17875 -6.87375,1.08 -10.9,1.9625 -11.7825,1.9625 -0.78625,0 -0.78625,-0.6875 -0.78625,-1.57 l 0,-2.2575 c 0,-0.78625 -0.19625,-1.17875 -0.687487,-1.17875 -1.571263,0 -5.793763,5.7925 -13.74625,5.7925 -9.230013,0 -11.782513,-5.59625 -11.782513,-13.9425"
       style="fill:#001A57;fill-opacity:1;fill-rule:nonzero;stroke:none"
       id="path2898" />
    <path
       d="m -23.901081,498.19581 c 0,-5.205 -4.81125,-3.53625 -4.81125,-5.40125 0,-0.6875 0.687487,-0.88375 2.062487,-1.37501 l 6.67625,-2.55125 c 0.49125,-0.19749 1.08,-0.19749 1.67,-0.19749 0.49,0 1.08,0.29375 1.08,1.76875 l 0,40.355 c 0,1.07875 0.195,1.57 0.88375,1.57 0.98125,0 16.00375006,-8.8375 16.00375006,-10.60375 0,-2.5525 -3.72999996,-2.5525 -3.72999996,-4.025 0,-0.49125 0.785,-0.9825 1.375,-0.9825 2.06249996,0 5.0075,0.1975 7.55875,0.1975 2.45375,0 5.4012499,-0.1975 7.3649999,-0.1975 0.88375,0 1.86625,0.1975 1.86625,1.1775 0,1.08125 -3.43625,1.76875 -4.8112499,2.3575 -2.8475,1.27625 -18.95125,10.605 -18.95125,11.68375 0,0.6875 0.49125,1.07875 0.78625,1.375 l 16.985,15.415 c 4.0262499,3.63375 7.7574999,3.34 7.7574999,4.71375 0,0.49125 -0.98,0.98125 -2.5525,0.98125 -2.0625,0 -4.6162499,-0.3925 -7.5612499,-0.3925 -2.5525,0 -4.90875004,0.3925 -7.26625,0.3925 -2.06125,0 -2.945,-0.0987 -2.945,-0.98125 0,-0.88375 1.17875,-1.17875 2.8475,-1.37375 0.98374996,-0.1 1.86749996,-0.6875 1.86749996,-1.375 0,-0.49125 -0.49375,-0.98375 -1.08125,-1.57125 L -15.653594,535.11456 c -0.29375,-0.295 -0.68625,-0.58875 -0.88375,-0.58875 -0.3925,0 -0.68625,0.0975 -0.68625,0.49125 l 0,13.9425 c 0,2.15875 1.27625,2.84625 2.15875,3.1425 1.57125,0.49 2.84875,0.49 2.84875,1.37375 0,0.785 -1.2775,0.98125 -2.25875,0.98125 -2.35625,0 -4.41875,-0.3925 -6.57875,-0.3925 -2.3575,0 -5.399988,0.3925 -7.07,0.3925 -0.588738,0 -2.356238,-0.0987 -2.356238,-0.98125 0,-0.88375 0.784988,-1.08 1.7675,-1.37375 2.74875,-0.78625 4.81125,-0.49125 4.81125,-4.615 l 0,-49.29125"
       style="fill:#001A57;fill-opacity:1;fill-rule:nonzero;stroke:none"
       id="path2900" />
    <path
       d="m 42.546406,523.52706 c 0,-3.3375 -3.1425,-5.98875 -7.26625,-5.98875 -7.07,0 -11.2925,6.87375 -11.2925,9.9175 0,0.6875 0.1975,0.885 8.5425,0.885 8.64125,0 10.01625,-1.27875 10.01625,-4.81375 z m -19.44125,7.7575 c -0.19625,0.58875 -0.19625,1.8675 -0.19625,3.43625 0,8.25 2.25875,16.3975 14.23625,16.3975 7.56125,0 7.75625,-3.92625 9.32875,-3.92625 0.49,0 0.88375,0.295 0.88375,0.785 0,0.6875 -4.125,7.855 -14.33625,7.855 -10.8,0 -16.98625,-7.65875 -16.98625,-19.93125 0,-9.23125 5.695,-20.71875 17.87,-20.71875 11.2925,0 15.12125,9.6225 15.12125,13.84625 0,1.76625 -0.29375,2.25625 -1.965,2.25625 l -23.95625,0"
       style="fill:#001A57;fill-opacity:1;fill-rule:nonzero;stroke:none"
       id="path2902" />
    <path
       d="m -140.61609,562.98831 0,7.115 c 0.0762,1.99625 1.21875,3.2 3.0325,3.2 1.81125,0 2.955,-1.20375 3.03125,-3.2 l 0,-7.115 0.99125,0 0,7.13125 c -0.0312,2.36 -1.35625,4.0975 -4.0225,4.0975 -2.6675,0 -3.9925,-1.7375 -4.0225,-4.0975 l 0,-7.13125 0.99,0"
       style="fill:#272f5b;fill-opacity:1;fill-rule:nonzero;stroke:none"
       id="path2904" />
    <path
       d="m -119.36859,562.98831 1.1275,0 6.06375,9.675 0.0312,0 0,-9.675 0.99,0 0,11 -1.25,0 -5.94125,-9.5075 -0.0312,0 0,9.5075 -0.99,0 0,-11"
       style="fill:#001A57;fill-opacity:1;fill-rule:nonzero;stroke:none"
       id="path2906" />
    <path
       d="m -96.873594,573.98956 0.991249,0 0,-11.045 -0.991249,0 0,11.045 z"
       style="fill:#001A57;fill-opacity:1;fill-rule:nonzero;stroke:none"
       id="path2908" />
    <path
       d="m -78.132344,572.99706 0.03125,0 3.49,-10.00875 0.98875,0 -3.97625,11 -1.1275,0 -4.0225,-11 1.08,0 3.53625,10.00875"
       style="fill:#001A57;fill-opacity:1;fill-rule:nonzero;stroke:none"
       id="path2910" />
    <path
       d="m -60.496081,573.98831 0,-11 6.536237,0 0,0.915 -5.544987,0 0,3.945 5.332487,0 0,0.91375 -5.332487,0 0,4.31125 5.774987,0 0,0.915 -6.766237,0"
       style="fill:#272f5b;fill-opacity:1;fill-rule:nonzero;stroke:none"
       id="path2912" />
    <path
       d="m -37.046094,567.83456 c 1.40125,0 3.1375,-0.0937 3.1375,-1.9675 0,-2.1175 -1.98,-1.96375 -3.031237,-1.96375 l -2.223763,0 0,3.93125 2.1175,0 z m -2.1175,6.15375 -0.99125,0 0,-11 3.595,0 c 0.961263,0 1.7525,0.0612 2.591263,0.58 0.761237,0.45625 1.1275,1.24875 1.1275,2.29875 0,1.19 -0.838763,2.0425 -2.1175,2.36375 l 0,0.0275 c 1.401237,0.23 1.705,1.175 1.8425,2.45375 0.198737,1.7825 0.13875,2.605 0.579987,3.27625 l -1.14375,0 c -0.25875,-0.73125 -0.32,-1.50875 -0.38,-2.285 -0.22875,-2.51375 -0.381237,-2.95625 -2.376237,-2.95625 l -2.727513,0 0,5.24125"
       style="fill:#001A57;fill-opacity:1;fill-rule:nonzero;stroke:none"
       id="path2914" />
    <path
       d="m -16.193594,574.21706 c -1.7525,0 -3.23,-1.28 -3.27625,-3.09375 l 1.06625,0 c 0.03125,1.6925 1.28,2.18 2.7575,2.18 1.235,0 2.65125,-0.71625 2.65125,-2.1175 0,-1.09875 -0.7925,-1.615 -1.72125,-1.92125 -1.7825,-0.5925 -4.495,-1.1575 -4.495,-3.53375 0,-1.92 1.7675,-2.97125 3.50375,-2.97125 1.4475,0 3.3375,0.50375 3.58125,2.62125 l -1.0675,0 c -0.03,-1.35625 -1.26375,-1.7075 -2.39125,-1.7075 -1.1425,0 -2.55875,0.57875 -2.55875,1.92 0,3.125 6.215,1.70625 6.215,5.5 0,2.3925 -2.0575,3.12375 -4.265,3.12375"
       style="fill:#001A57;fill-opacity:1;fill-rule:nonzero;stroke:none"
       id="path2916" />
    <path
       d="m 1.8464061,573.98956 0.99125,0 0,-11.045 -0.99125,0 0,11.045 z"
       style="fill:#001A57;fill-opacity:1;fill-rule:nonzero;stroke:none"
       id="path2918" />
    <path
       d="m 19.581406,563.90331 -3.55,0 0,-0.915 8.045,0 0,0.915 -3.4875,0 -0.01625,10.085 -0.97625,0 -0.015,-10.085"
       style="fill:#001A57;fill-opacity:1;fill-rule:nonzero;stroke:none"
       id="path2920" />
    <path
       d="m 40.593906,569.23581 -4.0525,-6.2475 1.26375,0 3.3675,5.3175 3.3675,-5.3175 1.06625,0 -4.0225,6.215 0,4.785 -0.99,0 0,-4.7525"
       style="fill:#001A57;fill-opacity:1;fill-rule:nonzero;stroke:none"
       id="path2922" />
  </g>
</svg>
